<?xml version="1.0" encoding="UTF-8" standalone="no"?>
<!DOCTYPE svg PUBLIC "-//W3C//DTD SVG 1.1//EN"
 "http://www.w3.org/Graphics/SVG/1.1/DTD/svg11.dtd">
<!-- Generated by graphviz version 2.40.1 (20161225.0304)
 -->
<!-- Title: G Pages: 1 -->
<svg width="810pt" height="200pt"
 viewBox="0.00 0.00 810.00 200.00" xmlns="http://www.w3.org/2000/svg" xmlns:xlink="http://www.w3.org/1999/xlink">
<g id="graph0" class="graph" transform="scale(1 1) rotate(0) translate(4 196)">
<title>G</title>
<polygon fill="#ffffff" stroke="transparent" points="-4,4 -4,-196 806,-196 806,4 -4,4"/>
<!-- A0 -->
<g id="node1" class="node">
<title>A0</title>
<polygon fill="none" stroke="#000000" points="0,-160 0,-192 278,-192 278,-160 0,-160"/>
<text text-anchor="start" x="123.2975" y="-173" font-family="Helvetica,sans-Serif" font-size="10.00" fill="#000000">+Event</text>
<polygon fill="none" stroke="#000000" points="0,-80 0,-160 278,-160 278,-80 0,-80"/>
<text text-anchor="start" x="109.9655" y="-141" font-family="Helvetica,sans-Serif" font-size="10.00" fill="#000000">+name:string</text>
<text text-anchor="start" x="113.02" y="-129" font-family="Helvetica,sans-Serif" font-size="10.00" fill="#000000">+type:string</text>
<text text-anchor="start" x="98.298" y="-117" font-family="Helvetica,sans-Serif" font-size="10.00" fill="#000000">+description:string</text>
<text text-anchor="start" x="92.194" y="-105" font-family="Helvetica,sans-Serif" font-size="10.00" fill="#000000">+startTime:DateTime</text>
<text text-anchor="start" x="93.5785" y="-93" font-family="Helvetica,sans-Serif" font-size="10.00" fill="#000000">+endTime:DateTime</text>
<polygon fill="none" stroke="#000000" points="0,0 0,-80 278,-80 278,0 0,0"/>
<text text-anchor="start" x="110.525" y="-61" font-family="Helvetica,sans-Serif" font-size="10.00" fill="#000000">+setName(in</text>
<text text-anchor="start" x="100.383" y="-49" font-family="Helvetica,sans-Serif" font-size="10.00" fill="#000000">name:string):bool</text>
<text text-anchor="start" x="72.738" y="-37" font-family="Helvetica,sans-Serif" font-size="10.00" fill="#000000">+setType(in name:string):bool</text>
<text text-anchor="start" x="58.851" y="-25" font-family="Helvetica,sans-Serif" font-size="10.00" fill="#000000">+setDescription(in name:string):bool</text>
<text text-anchor="start" x="9.691" y="-13" font-family="Helvetica,sans-Serif" font-size="10.00" fill="#000000">+setTime(in startTime:DateTime, endTime:DateTime):bool</text>
</g>
<!-- A1 -->
<g id="node2" class="node">
<title>A1</title>
<polygon fill="none" stroke="#000000" points="296,-154 296,-186 476,-186 476,-154 296,-154"/>
<text text-anchor="start" x="357.235" y="-167" font-family="Helvetica,sans-Serif" font-size="10.00" fill="#000000">+FoodVenue</text>
<polygon fill="none" stroke="#000000" points="296,-86 296,-154 476,-154 476,-86 296,-86"/>
<text text-anchor="start" x="356.9655" y="-135" font-family="Helvetica,sans-Serif" font-size="10.00" fill="#000000">+name:string</text>
<text text-anchor="start" x="358.355" y="-123" font-family="Helvetica,sans-Serif" font-size="10.00" fill="#000000">+Type:string</text>
<text text-anchor="start" x="345.298" y="-111" font-family="Helvetica,sans-Serif" font-size="10.00" fill="#000000">+description:string</text>
<text text-anchor="start" x="356.6865" y="-99" font-family="Helvetica,sans-Serif" font-size="10.00" fill="#000000">+hours:(0..*)}</text>
<polygon fill="none" stroke="#000000" points="296,-6 296,-86 476,-86 476,-6 296,-6"/>
<text text-anchor="start" x="357.525" y="-67" font-family="Helvetica,sans-Serif" font-size="10.00" fill="#000000">+setName(in</text>
<text text-anchor="start" x="347.383" y="-55" font-family="Helvetica,sans-Serif" font-size="10.00" fill="#000000">name:string):bool</text>
<text text-anchor="start" x="319.738" y="-43" font-family="Helvetica,sans-Serif" font-size="10.00" fill="#000000">+setType(in name:string):bool</text>
<text text-anchor="start" x="305.851" y="-31" font-family="Helvetica,sans-Serif" font-size="10.00" fill="#000000">+setDescription(in name:string):bool</text>
<text text-anchor="start" x="314.1895" y="-19" font-family="Helvetica,sans-Serif" font-size="10.00" fill="#000000">+setHours(in hours:(0..*)):boolW</text>
</g>
<!-- A2 -->
<g id="node3" class="node">
<title>A2</title>
<polygon fill="none" stroke="#000000" points="495,-124 495,-156 574,-156 574,-124 495,-124"/>
<text text-anchor="start" x="511.2995" y="-137" font-family="Helvetica,sans-Serif" font-size="10.00" fill="#000000">+Calendar</text>
<polygon fill="none" stroke="#000000" points="495,-80 495,-124 574,-124 574,-80 495,-80"/>
<text text-anchor="start" x="506.301" y="-105" font-family="Helvetica,sans-Serif" font-size="10.00" fill="#000000">+ownerID:int</text>
<text text-anchor="start" x="504.631" y="-93" font-family="Helvetica,sans-Serif" font-size="10.00" fill="#000000">+events:(0..*)</text>
<polygon fill="none" stroke="#000000" points="495,-36 495,-80 574,-80 574,-36 495,-36"/>
<text text-anchor="start" x="507.825" y="-61" font-family="Helvetica,sans-Serif" font-size="10.00" fill="#000000">addEvent(in</text>
<text text-anchor="start" x="506.435" y="-49" font-family="Helvetica,sans-Serif" font-size="10.00" fill="#000000">event:Event)</text>
</g>
<!-- A3 -->
<g id="node4" class="node">
<title>A3</title>
<polygon fill="none" stroke="#000000" points="592,-136 592,-168 802,-168 802,-136 592,-136"/>
<text text-anchor="start" x="683.527" y="-149" font-family="Helvetica,sans-Serif" font-size="10.00" fill="#000000">+User</text>
<polygon fill="none" stroke="#000000" points="592,-80 592,-136 802,-136 802,-80 592,-80"/>
<text text-anchor="start" x="684.7785" y="-117" font-family="Helvetica,sans-Serif" font-size="10.00" fill="#000000">&#45;id:int</text>
<text text-anchor="start" x="657.4075" y="-105" font-family="Helvetica,sans-Serif" font-size="10.00" fill="#000000">+username:String</text>
<text text-anchor="start" x="666.857" y="-93" font-family="Helvetica,sans-Serif" font-size="10.00" fill="#000000">+friends:(0..*)</text>
<polygon fill="none" stroke="#000000" points="592,-24 592,-80 802,-80 802,-24 592,-24"/>
<text text-anchor="start" x="675.8855" y="-61" font-family="Helvetica,sans-Serif" font-size="10.00" fill="#000000">getId():int</text>
<text text-anchor="start" x="633.659" y="-49" font-family="Helvetica,sans-Serif" font-size="10.00" fill="#000000">addFriend(in userID:int):bool</text>
<text text-anchor="start" x="601.9925" y="-37" font-family="Helvetica,sans-Serif" font-size="10.00" fill="#000000">setUsername(in newUsername:string):bool</text>
</g>
</g>
</svg>
