<?xml version="1.0" encoding="UTF-8" standalone="no"?>
<!DOCTYPE svg PUBLIC "-//W3C//DTD SVG 1.1//EN"
 "http://www.w3.org/Graphics/SVG/1.1/DTD/svg11.dtd">
<!-- Generated by graphviz version 2.40.1 (20161225.0304)
 -->
<!-- Title: G Pages: 1 -->
<svg width="715pt" height="456pt"
 viewBox="0.00 0.00 715.00 456.00" xmlns="http://www.w3.org/2000/svg" xmlns:xlink="http://www.w3.org/1999/xlink">
<g id="graph0" class="graph" transform="scale(1 1) rotate(0) translate(4 452)">
<title>G</title>
<polygon fill="#ffffff" stroke="transparent" points="-4,4 -4,-452 711,-452 711,4 -4,4"/>
<!-- A0 -->
<g id="node1" class="node">
<title>A0</title>
<polygon fill="none" stroke="#000000" points="7.5,-416 7.5,-448 145.5,-448 145.5,-416 7.5,-416"/>
<text text-anchor="start" x="54.139" y="-429" font-family="Helvetica,sans-Serif" font-size="10.00" fill="#000000">+HotDrink</text>
<polygon fill="none" stroke="#000000" points="7.5,-336 7.5,-416 145.5,-416 145.5,-336 7.5,-336"/>
<text text-anchor="start" x="47.736" y="-397" font-family="Helvetica,sans-Serif" font-size="10.00" fill="#000000">+Instant:bool</text>
<text text-anchor="start" x="55.1145" y="-385" font-family="Helvetica,sans-Serif" font-size="10.00" fill="#000000">&#45;Milk:bool</text>
<text text-anchor="start" x="49.545" y="-373" font-family="Helvetica,sans-Serif" font-size="10.00" fill="#000000">$Sugar:byte</text>
<text text-anchor="start" x="32.1885" y="-361" font-family="Helvetica,sans-Serif" font-size="10.00" fill="#000000">=$Description:string</text>
<text text-anchor="start" x="17.1935" y="-349" font-family="Helvetica,sans-Serif" font-size="10.00" fill="#000000">=myCustomers:Customers</text>
<polygon fill="none" stroke="#000000" points="7.5,-292 7.5,-336 145.5,-336 145.5,-292 7.5,-292"/>
<text text-anchor="start" x="44.1315" y="-317" font-family="Helvetica,sans-Serif" font-size="10.00" fill="#000000">&#45;=AddSugar(in</text>
<text text-anchor="start" x="32.598" y="-305" font-family="Helvetica,sans-Serif" font-size="10.00" fill="#000000">amount:byte):byte:v</text>
</g>
<!-- A5 -->
<g id="node6" class="node">
<title>A5</title>
<polygon fill="none" stroke="#000000" points=".5,-210 .5,-242 111.5,-242 111.5,-210 .5,-210"/>
<text text-anchor="start" x="24.185" y="-223" font-family="Helvetica,sans-Serif" font-size="10.00" fill="#000000">+CupOfCocoa</text>
<polygon fill="none" stroke="#000000" points=".5,-166 .5,-210 111.5,-210 111.5,-166 .5,-166"/>
<text text-anchor="start" x="21.131" y="-191" font-family="Helvetica,sans-Serif" font-size="10.00" fill="#000000">+numCups:int:s</text>
<text text-anchor="start" x="10.303" y="-179" font-family="Helvetica,sans-Serif" font-size="10.00" fill="#000000">+Marshmallows:bool</text>
<polygon fill="none" stroke="#000000" points=".5,-122 .5,-166 111.5,-166 111.5,-122 .5,-122"/>
<text text-anchor="start" x="28.2155" y="-147" font-family="Helvetica,sans-Serif" font-size="10.00" fill="#000000">AddSugar(in</text>
<text text-anchor="start" x="15.9875" y="-135" font-family="Helvetica,sans-Serif" font-size="10.00" fill="#000000">amount:byte):byte</text>
</g>
<!-- A0&#45;&gt;A5 -->
<g id="edge1" class="edge">
<title>A0&#45;&gt;A5</title>
<path fill="none" stroke="#000000" d="M66.636,-281.6941C65.1375,-268.2789 63.6217,-254.7085 62.2112,-242.0811"/>
<polygon fill="#000000" stroke="#000000" points="67.7765,-291.9043 62.1942,-282.4657 67.2214,-286.9352 66.6663,-281.9661 66.6663,-281.9661 66.6663,-281.9661 67.2214,-286.9352 71.1385,-281.4665 67.7765,-291.9043 67.7765,-291.9043"/>
</g>
<!-- A8 -->
<g id="node9" class="node">
<title>A8</title>
<polygon fill="none" stroke="#000000" points="129.5,-192 129.5,-224 282.5,-224 282.5,-192 129.5,-192"/>
<text text-anchor="start" x="178.914" y="-205" font-family="Helvetica,sans-Serif" font-size="10.00" fill="#000000">+Customers</text>
<polygon fill="none" stroke="#000000" points="129.5,-160 129.5,-192 282.5,-192 282.5,-160 129.5,-160"/>
<text text-anchor="start" x="139.472" y="-173" font-family="Helvetica,sans-Serif" font-size="10.00" fill="#000000">+myCustomer:Customer:(0..*)</text>
<polygon fill="none" stroke="#000000" points="129.5,-140 129.5,-160 282.5,-160 282.5,-140 129.5,-140"/>
</g>
<!-- A0&#45;&gt;A8 -->
<g id="edge4" class="edge">
<title>A0&#45;&gt;A8</title>
<path fill="none" stroke="#000000" d="M130.0869,-291.9043C146.0084,-268.7009 162.8436,-244.1659 176.5587,-224.1781"/>
<text text-anchor="middle" x="173.2726" y="-240.9063" font-family="Helvetica,sans-Serif" font-size="10.00" fill="#000000">1</text>
<text text-anchor="middle" x="133.373" y="-269.1761" font-family="Helvetica,sans-Serif" font-size="10.00" fill="#000000">1</text>
</g>
<!-- A1 -->
<g id="node2" class="node">
<title>A1</title>
<polygon fill="none" stroke="#000000" points="205.5,-416 205.5,-448 325.5,-448 325.5,-416 205.5,-416"/>
<text text-anchor="start" x="244.394" y="-429" font-family="Helvetica,sans-Serif" font-size="10.00" fill="#000000">&#45;HotDrink</text>
<polygon fill="none" stroke="#000000" points="205.5,-336 205.5,-416 325.5,-416 325.5,-336 205.5,-336"/>
<text text-anchor="start" x="236.736" y="-397" font-family="Helvetica,sans-Serif" font-size="10.00" fill="#000000">+Instant:bool</text>
<text text-anchor="start" x="242.8595" y="-385" font-family="Helvetica,sans-Serif" font-size="10.00" fill="#000000">+Milk:bool</text>
<text text-anchor="start" x="239.66" y="-373" font-family="Helvetica,sans-Serif" font-size="10.00" fill="#000000">&#45;Sugar:byte</text>
<text text-anchor="start" x="223.968" y="-361" font-family="Helvetica,sans-Serif" font-size="10.00" fill="#000000">+Description:string</text>
<text text-anchor="start" x="215.079" y="-349" font-family="Helvetica,sans-Serif" font-size="10.00" fill="#000000">=Customers:Collection</text>
<polygon fill="none" stroke="#000000" points="205.5,-292 205.5,-336 325.5,-336 325.5,-292 205.5,-292"/>
<text text-anchor="start" x="234.796" y="-317" font-family="Helvetica,sans-Serif" font-size="10.00" fill="#000000">+AddSugar(in</text>
<text text-anchor="start" x="221.3185" y="-305" font-family="Helvetica,sans-Serif" font-size="10.00" fill="#000000">amount:byte):byte:a</text>
</g>
<!-- A2 -->
<g id="node3" class="node">
<title>A2</title>
<polygon fill="none" stroke="#000000" points="364.5,-386 364.5,-418 464.5,-418 464.5,-386 364.5,-386"/>
<text text-anchor="start" x="390.7495" y="-399" font-family="Helvetica,sans-Serif" font-size="10.00" fill="#000000">+IHotDrink</text>
<polygon fill="none" stroke="#000000" points="364.5,-366 364.5,-386 464.5,-386 464.5,-366 364.5,-366"/>
<polygon fill="none" stroke="#000000" points="364.5,-322 364.5,-366 464.5,-366 464.5,-322 364.5,-322"/>
<text text-anchor="start" x="383.796" y="-347" font-family="Helvetica,sans-Serif" font-size="10.00" fill="#000000">+AddSugar(in</text>
<text text-anchor="start" x="374.4875" y="-335" font-family="Helvetica,sans-Serif" font-size="10.00" fill="#000000">amount:byte):byte</text>
</g>
<!-- A6 -->
<g id="node7" class="node">
<title>A6</title>
<polygon fill="none" stroke="#000000" points="365.5,-192 365.5,-224 463.5,-224 463.5,-192 365.5,-192"/>
<text text-anchor="start" x="382.406" y="-205" font-family="Helvetica,sans-Serif" font-size="10.00" fill="#000000">+CupOfCoffee</text>
<polygon fill="none" stroke="#000000" points="365.5,-160 365.5,-192 463.5,-192 463.5,-160 365.5,-160"/>
<text text-anchor="start" x="375.182" y="-173" font-family="Helvetica,sans-Serif" font-size="10.00" fill="#000000">+BeanType:string</text>
<polygon fill="none" stroke="#000000" points="365.5,-140 365.5,-160 463.5,-160 463.5,-140 365.5,-140"/>
</g>
<!-- A2&#45;&gt;A6 -->
<g id="edge2" class="edge">
<title>A2&#45;&gt;A6</title>
<path fill="none" stroke="#000000" d="M414.5,-311.4241C414.5,-283.1662 414.5,-249.9054 414.5,-224.1781"/>
<polygon fill="none" stroke="#000000" points="411.0001,-311.5853 414.5,-321.5853 418.0001,-311.5854 411.0001,-311.5853"/>
</g>
<!-- A3 -->
<g id="node4" class="node">
<title>A3</title>
<polygon fill="none" stroke="#000000" points="483.5,-410 483.5,-442 586.5,-442 586.5,-410 483.5,-410"/>
<text text-anchor="start" x="507.915" y="-423" font-family="Helvetica,sans-Serif" font-size="10.00" fill="#000000">+A:HotDrink</text>
<polygon fill="none" stroke="#000000" points="483.5,-342 483.5,-410 586.5,-410 586.5,-342 483.5,-342"/>
<text text-anchor="start" x="506.236" y="-391" font-family="Helvetica,sans-Serif" font-size="10.00" fill="#000000">+Instant:bool</text>
<text text-anchor="start" x="512.3595" y="-379" font-family="Helvetica,sans-Serif" font-size="10.00" fill="#000000">+Milk:bool</text>
<text text-anchor="start" x="509.16" y="-367" font-family="Helvetica,sans-Serif" font-size="10.00" fill="#000000">&#45;Sugar:byte</text>
<text text-anchor="start" x="493.468" y="-355" font-family="Helvetica,sans-Serif" font-size="10.00" fill="#000000">+Description:string</text>
<polygon fill="none" stroke="#000000" points="483.5,-298 483.5,-342 586.5,-342 586.5,-298 483.5,-298"/>
<text text-anchor="start" x="504.296" y="-323" font-family="Helvetica,sans-Serif" font-size="10.00" fill="#000000">+AddSugar(in</text>
<text text-anchor="start" x="494.9875" y="-311" font-family="Helvetica,sans-Serif" font-size="10.00" fill="#000000">amount:byte):byte</text>
</g>
<!-- A7 -->
<g id="node8" class="node">
<title>A7</title>
<polygon fill="none" stroke="#000000" points="487.5,-192 487.5,-224 581.5,-224 581.5,-192 487.5,-192"/>
<text text-anchor="start" x="508.5195" y="-205" font-family="Helvetica,sans-Serif" font-size="10.00" fill="#000000">+CupOfTea</text>
<polygon fill="none" stroke="#000000" points="487.5,-160 487.5,-192 581.5,-192 581.5,-160 487.5,-160"/>
<text text-anchor="start" x="497.127" y="-173" font-family="Helvetica,sans-Serif" font-size="10.00" fill="#000000">+LeafType:string</text>
<polygon fill="none" stroke="#000000" points="487.5,-140 487.5,-160 581.5,-160 581.5,-140 487.5,-140"/>
</g>
<!-- A3&#45;&gt;A7 -->
<g id="edge3" class="edge">
<title>A3&#45;&gt;A7</title>
<path fill="none" stroke="#000000" stroke-dasharray="5,2" d="M534.5,-287.8115C534.5,-265.7854 534.5,-242.8803 534.5,-224.0373"/>
<polygon fill="#000000" stroke="#000000" points="534.5,-297.852 530.0001,-287.8519 534.5,-292.852 534.5001,-287.852 534.5001,-287.852 534.5001,-287.852 534.5,-292.852 539.0001,-287.852 534.5,-297.852 534.5,-297.852"/>
</g>
<!-- A4 -->
<g id="node5" class="node">
<title>A4</title>
<polygon fill="none" stroke="#000000" points="604.5,-410 604.5,-442 707.5,-442 707.5,-410 604.5,-410"/>
<text text-anchor="start" x="628.915" y="-423" font-family="Helvetica,sans-Serif" font-size="10.00" fill="#000000">+S:HotDrink</text>
<polygon fill="none" stroke="#000000" points="604.5,-342 604.5,-410 707.5,-410 707.5,-342 604.5,-342"/>
<text text-anchor="start" x="627.236" y="-391" font-family="Helvetica,sans-Serif" font-size="10.00" fill="#000000">+Instant:bool</text>
<text text-anchor="start" x="633.3595" y="-379" font-family="Helvetica,sans-Serif" font-size="10.00" fill="#000000">+Milk:bool</text>
<text text-anchor="start" x="630.16" y="-367" font-family="Helvetica,sans-Serif" font-size="10.00" fill="#000000">&#45;Sugar:byte</text>
<text text-anchor="start" x="614.468" y="-355" font-family="Helvetica,sans-Serif" font-size="10.00" fill="#000000">+Description:string</text>
<polygon fill="none" stroke="#000000" points="604.5,-298 604.5,-342 707.5,-342 707.5,-298 604.5,-298"/>
<text text-anchor="start" x="625.296" y="-323" font-family="Helvetica,sans-Serif" font-size="10.00" fill="#000000">+AddSugar(in</text>
<text text-anchor="start" x="615.9875" y="-311" font-family="Helvetica,sans-Serif" font-size="10.00" fill="#000000">amount:byte):byte</text>
</g>
<!-- A9 -->
<g id="node10" class="node">
<title>A9</title>
<polygon fill="none" stroke="#000000" points="171.5,-40 171.5,-72 240.5,-72 240.5,-40 171.5,-40"/>
<text text-anchor="start" x="181.414" y="-53" font-family="Helvetica,sans-Serif" font-size="10.00" fill="#000000">+Customer</text>
<polygon fill="none" stroke="#000000" points="171.5,-20 171.5,-40 240.5,-40 240.5,-20 171.5,-20"/>
<polygon fill="none" stroke="#000000" points="171.5,0 171.5,-20 240.5,-20 240.5,0 171.5,0"/>
</g>
<!-- A8&#45;&gt;A9 -->
<g id="edge5" class="edge">
<title>A8&#45;&gt;A9</title>
<path fill="none" stroke="#000000" d="M205.5,-139.7708C205.5,-118.3795 205.5,-92.6735 205.5,-72.1983"/>
<text text-anchor="middle" x="213.9524" y="-87.3245" font-family="Helvetica,sans-Serif" font-size="10.00" fill="#000000">0..*</text>
<text text-anchor="middle" x="197.0476" y="-118.6446" font-family="Helvetica,sans-Serif" font-size="10.00" fill="#000000">1</text>
</g>
</g>
</svg>
